<?xml version="1.0" standalone="no"?>
<!DOCTYPE svg PUBLIC "-//W3C//DTD SVG 20010904//EN"
 "http://www.w3.org/TR/2001/REC-SVG-20010904/DTD/svg10.dtd">
<svg version="1.0" xmlns="http://www.w3.org/2000/svg"
 width="123.000000pt" height="50.000000pt" viewBox="0 0 123.000000 50.000000"
 preserveAspectRatio="xMidYMid meet">
<metadata>
Created by potrace 1.13, written by Peter Selinger 2001-2015
</metadata>
<g transform="translate(0.000000,50.000000) scale(0.100000,-0.100000)"
fill="#000000" stroke="none">
<path d="M135 491 c-95 -24 -148 -104 -120 -184 19 -55 115 -168 139 -165 34
5 29 30 -19 88 -25 30 -48 66 -52 79 -8 31 21 87 60 115 34 25 125 28 153 5
15 -12 17 -12 12 1 -6 19 -73 56 -113 63 -16 3 -43 2 -60 -2z"/>
<path d="M455 431 c-57 -25 -79 -102 -39 -141 11 -11 50 -29 88 -39 84 -23
104 -40 88 -75 -22 -50 -126 -43 -150 10 -13 27 -52 34 -52 9 0 -57 62 -101
136 -98 148 5 173 157 33 193 -78 20 -92 26 -103 43 -17 26 5 51 47 55 41 4
77 -12 77 -33 0 -10 10 -15 29 -15 24 0 28 3 24 24 -8 42 -47 69 -105 73 -29
1 -62 -1 -73 -6z"/>
<path d="M732 425 c-21 -9 -38 -27 -47 -49 -19 -46 -19 -46 10 -46 18 0 28 7
34 24 22 57 141 46 141 -13 0 -26 -17 -37 -84 -50 -68 -13 -102 -32 -118 -66
-16 -35 -2 -92 28 -112 34 -22 110 -20 142 4 25 19 26 19 48 -3 14 -15 29 -21
43 -17 24 6 28 38 6 47 -12 4 -15 27 -15 120 0 106 -2 117 -23 142 -19 22 -34
28 -78 31 -34 2 -66 -2 -87 -12z"/>
<path d="M1002 421 c-54 -34 -64 -98 -23 -135 10 -9 48 -25 86 -35 37 -10 74
-26 82 -34 20 -20 8 -56 -24 -68 -46 -17 -74 -10 -109 26 -52 56 -83 41 -49
-24 17 -34 62 -54 120 -53 148 2 175 155 34 192 -78 20 -92 26 -103 43 -17 26
5 51 47 55 41 4 77 -12 77 -33 0 -10 10 -15 31 -15 27 0 30 3 24 23 -4 12 -18
33 -30 46 -33 34 -117 40 -163 12z"/>
<path d="M167 353 c-14 -13 -6 -32 29 -74 56 -68 67 -94 54 -134 -24 -74 -109
-111 -188 -83 -50 18 -43 3 15 -33 101 -63 253 9 253 120 0 45 -16 76 -77 151
-44 54 -70 70 -86 53z"/>
</g>
</svg>
